<svg width="96" height="133" viewBox="0 0 96 133" fill="none" xmlns="http://www.w3.org/2000/svg">
<g clip-path="url(#clip0_4024_1755)">
<path fill-rule="evenodd" clip-rule="evenodd" d="M65.5632 95.2215C65.4641 93.9297 65.2031 92.6551 64.7861 91.4272C62.7213 91.9221 60.4346 92.0871 59.713 89.9314C58.2533 90.9415 56.449 91.337 54.6954 91.0312C53.9073 89.2606 53.1302 87.4899 52.3976 85.7192C51.787 85.2793 51.1765 84.8943 50.6214 84.4984C48.7787 82.2988 48.5567 80.1871 45.4818 78.8674C42.973 75.106 42.862 75.216 38.1219 74.2262C36.7787 73.7202 35.1136 72.8404 33.6816 72.8404C34.1811 73.6103 34.7361 74.4461 35.3023 75.271C36.1349 75.6009 37.0229 75.9309 37.9221 76.2718C39.9868 78.3175 40.3199 81.7709 42.6621 83.9705C42.7407 83.2259 42.6457 82.4734 42.3846 81.7709C46.0701 81.7709 47.5132 83.0466 47.7907 86.632C45.6705 91.3392 41.3189 90.8333 39.1432 86.467C38.5326 86.0271 34.8472 84.3664 31.2283 82.4967C29.7741 80.5611 29.0081 78.2405 27.2653 76.5248C25.3135 75.4686 23.5232 74.1429 21.948 72.5874C21.8208 70.7872 21.2654 69.0423 20.3273 67.4953C19.6612 66.8904 16.1978 64.3499 16.1978 63.525C11.6908 62.1063 13.1006 47.1928 13.467 43.7284C14.3486 41.4826 15.0429 39.1689 15.5428 36.8106C15.8758 33.5112 15.8758 33.5112 16.2644 24.2618C17.6631 22.0622 19.2727 20.6214 16.3199 19.4556C17.3189 17.0251 19.8943 15.4743 20.8379 13.0987C20.8379 12.1089 20.5604 11.658 20.5604 11.1081C24.5789 8.51253 27.5317 7.01679 29.1524 2.48557C29.9913 1.54688 30.9418 0.712277 31.9831 0L32.3717 0C32.2607 1.27578 32.2052 2.54056 32.1497 3.87133C36.1682 3.14546 36.59 2.92549 37.1117 2.98048C36.6558 3.55618 36.3678 4.24467 36.2792 4.97114C37.5669 5.08112 38.8435 5.24609 40.1867 5.41106C44.3162 6.90681 49.2227 5.08112 53.5077 6.24692C53.8049 6.56878 54.0274 6.95114 54.1597 7.36721C54.292 7.78328 54.3309 8.22298 54.2736 8.6555C56.9267 9.05143 57.7593 11.548 55.2949 12.4938C53.729 12.4466 52.1658 12.6508 50.6658 13.0987C50.6762 13.3802 50.7134 13.6601 50.7769 13.9346C52.0534 13.9346 53.3966 13.9896 54.7398 14.0446C55.1839 16.4202 53.0081 18.6308 50.7213 17.135C48.8997 17.1568 47.0849 17.3594 45.3041 17.7399C44.4716 19.7856 40.3976 19.9396 38.6436 19.9396C38.3197 23.7852 38.3011 27.6501 38.5881 31.4986C42.5511 31.0036 44.1386 30.8827 48.0127 31.9385C50.0884 30.6272 52.2897 29.522 54.5844 28.639C63.2875 26.4394 72.7787 27.8582 81.7149 27.8582C82.1818 27.8503 82.6488 27.8687 83.1136 27.9132C82.7994 28.7634 82.3033 29.5363 81.6594 30.1788C80.2333 30.5655 78.8352 31.0468 77.4743 31.6195C77.8396 31.9449 78.283 32.172 78.762 32.2794C77.9739 35.0399 71.2246 33.9951 70.503 36.2607C70.9335 36.6208 71.4491 36.8667 72.0016 36.9756C66.4512 39.4062 61.7445 37.3055 55.9387 37.0306C55.4613 37.1444 54.9936 37.2951 54.54 37.4815C56.6048 40.9789 57.0155 47.5228 57.1709 52.6259C57.1433 52.9002 57.1433 53.1765 57.1709 53.4508C59.3583 57.5814 60.7511 62.0791 61.2782 66.7145C61.9492 68.5722 62.9491 70.2966 64.2311 71.8066C65.0135 74.0803 65.6293 76.4069 66.0738 78.7684C67.1839 80.4731 68.294 82.2438 69.404 84.0145C70.1367 86.841 74.1441 90.7563 73.8444 92.9669C73.1783 92.9669 71.3689 94.6936 71.0914 95.2435H65.541M65.1524 84.9823C65.2304 84.848 65.3516 84.7434 65.4966 84.6853C65.8962 85.3562 67.8499 88.2817 67.5613 89.2276C67.0579 89.5444 66.5758 89.8935 66.1182 90.2724C65.33 89.5025 65.33 86.1261 65.219 84.9713M65.4966 84.6853C65.3779 84.7518 65.2814 84.8512 65.219 84.9713L63.6649 84.8063C63.6298 84.3633 63.7262 83.9199 63.9424 83.5305H64.886C65.0676 83.9265 65.2714 84.312 65.4966 84.6853ZM59.9461 84.6853L55.5058 81.9248C55.2283 79.8242 52.997 78.5594 51.5428 77.1187C50.7102 75.5129 49.9221 73.9182 49.145 72.3675C46.6917 69.541 42.9508 69.9369 46.4697 66.0106C47.2209 65.6394 48.0204 65.3729 48.8453 65.2187C49.7047 67.6929 51.505 69.737 53.8629 70.9157C56.9378 74.1272 56.2607 78.4934 59.3356 81.5289C59.5021 81.9688 60.6677 84.4544 59.9461 84.6744M62.2329 79.1753C60.2792 78.2295 60.6677 76.3598 60.6677 74.6441C59.2246 72.0485 58.2699 69.673 55.4281 68.5071C54.5733 67.0884 52.6307 64.8888 53.8518 63.2281C57.4262 63.2281 58.0368 65.8346 58.8139 68.6501C60.2126 71.6856 61.9443 74.5121 63.5095 77.3826C63.4621 77.8613 63.4436 78.3424 63.454 78.8234L62.2773 79.1863M32.9933 78.4714C32.0511 76.6329 30.9868 74.8583 29.8074 73.1593C27.7426 71.1137 24.9563 70.2338 27.0211 67.5173H28.5308C31.5391 70.1239 30.8176 74.985 34.8805 77.2506V77.9655C34.2144 78.1305 33.6039 78.3064 32.9933 78.4714ZM33.3041 62.8431C31.3159 62.3406 29.2728 62.082 27.2209 62.0733C23.5354 60.5775 22.0923 59.8736 21.6705 55.8263C22.3967 55.0668 23.2735 54.4639 24.2459 54.0557C26.417 55.4471 28.3224 57.2083 29.874 59.2578C31.3837 59.9726 32.6603 59.4777 34.17 60.5775C35.5687 60.6875 35.5687 60.6875 35.9017 60.8525C35.8926 61.023 35.9113 61.1938 35.9572 61.3584C35.1363 61.9571 34.2455 62.4556 33.3041 62.8431ZM37.9887 59.8077C37.7112 59.1478 37.5447 59.0268 37.7112 58.3119C41.0414 56.3213 39.4984 54.1106 36.6011 52.6259C36.3236 52.01 36.046 51.4601 35.824 50.9102C35.9905 50.5253 36.1571 50.1293 36.3236 49.8104C40.3976 49.5904 42.4623 49.4254 43.75 53.3518C43.4614 54.7375 42.1848 55.9473 41.2856 57.0031C40.3976 59.1038 40.2866 59.5987 37.9554 59.8187M50.9545 59.1038C49.5558 57.2231 48.2792 55.4524 45.9369 57.1131C45.7706 57.0684 45.5983 57.0498 45.4262 57.0581C45.1487 55.1225 46.8805 55.9583 47.6464 54.7375C47.0359 50.1403 42.096 45.3342 39.2764 41.9687C38.6376 39.3051 38.3025 36.5788 38.2773 33.8411C40.9385 33.8234 43.5561 34.5107 45.8592 35.8318C46.096 35.234 46.1576 34.5821 46.0368 33.9511C56.627 37.2506 55.1173 45.6861 52.7861 51.4161C51.676 53.2968 49.6002 51.801 49.4558 54.7155C51.676 54.7155 52.1311 55.8153 53.1968 57.586C53.1968 58.5759 51.7981 59.0158 50.9767 59.1368M35.2246 37.5255C32.8268 32.1694 33.3818 25.4276 33.8259 19.6206C34.6308 19.6309 35.4103 19.9012 36.046 20.3905C35.4431 26.0817 35.1836 31.8036 35.269 37.5255M38.4993 8.27057C39.676 7.10477 41.2856 7.06078 41.5632 8.72149C41.344 8.91947 41.0832 9.06664 40.7995 9.15233C40.5159 9.23802 40.2165 9.26008 39.9232 9.2169C39.6298 9.17373 39.3499 9.06641 39.1036 8.90273C38.8573 8.73905 38.6509 8.5231 38.4993 8.27057ZM54.2292 8.6665C53.9463 8.7584 53.6684 8.86486 53.3966 8.98545C52.442 9.46936 51.2764 8.91946 51.6316 7.88564C51.787 7.88564 54.318 8.61151 54.2292 8.6445" fill="#2E3239"/>
<path d="M96 99.9067H0V103.712H96V99.9067Z" fill="#2E3239"/>
<path fill-rule="evenodd" clip-rule="evenodd" d="M68.8224 120.121L66.7021 126.577H70.9648L68.8224 120.121ZM27.4163 120.121L25.2849 126.577H29.5587L27.4163 120.121ZM7.84551 110.322V118.13L15.6161 110.322H22.099L15.4385 116.921L19.9787 128.348L25.9732 110.322H31.0795L36.9519 127.842V110.322H45.3219L49.185 123.014L53.4477 110.322H61.4403V127.842L67.2905 110.322H72.4523L78.6466 129.019L84.9519 114.171H78.6133V110.278H94.2322L86.5837 129.096H94.2877L94.1767 132.945L73.0851 133L72.2414 130.47H65.4033L64.5708 133H54.58V120.66L50.7613 133H45.2109L41.2368 120.66V133H31.679L30.8464 130.47H23.9972L23.1647 133H14.0176L9.76595 122.189L7.84551 124.058V133H0.929688V110.322H7.84551Z" fill="#2E3239"/>
</g>
<defs>
<clipPath id="clip0_4024_1755">
<rect width="96" height="133" fill="white"/>
</clipPath>
</defs>
</svg>
