<svg width="200" height="34" viewBox="0 0 200 34" fill="none" xmlns="http://www.w3.org/2000/svg">
<g clip-path="url(#clip0_4024_1761)">
<path fill-rule="evenodd" clip-rule="evenodd" d="M30.4644 2.02344C47.2444 2.02344 60.9298 8.69792 60.9298 16.8809C60.9298 25.0644 47.2444 31.7364 30.4644 31.7364C13.6855 31.7364 0 25.0644 0 16.8809C0 8.69792 13.6855 2.02344 30.4644 2.02344ZM45.5979 6.24693C37.2724 5.19493 28.4659 6.90242 24.8974 13.3349C24.5994 15.3229 25.3949 15.8189 27.2829 14.8249C35.6559 13.0119 42.2399 14.1799 47.0349 18.3289C50.5354 22.2449 53.8009 23.1804 56.5274 21.7059C57.9149 20.2169 58.6824 18.5859 58.6824 16.8809C58.6824 12.4199 53.4559 8.49042 45.5979 6.24693ZM25.7914 16.9129C21.6269 22.2859 17.3105 24.0839 12.748 20.1179C6.99298 14.8524 10.1575 8.21192 21.5434 5.28493L20.9444 5.01143C10.0625 6.76493 2.24749 11.4264 2.24749 16.8809C2.24749 23.8249 14.923 29.4914 30.4644 29.4914C34.0399 29.4914 37.4624 29.1894 40.6154 28.6419L40.6989 28.0189C38.6994 27.9309 35.9919 24.3034 32.7979 18.2544C30.8604 15.1239 28.5244 14.6764 25.7914 16.9129ZM125.72 29.6944L125.798 29.6534C124.953 29.4934 124.228 29.0579 123.691 28.5559L118.286 20.4504C117.76 19.8664 118.006 19.2279 118.599 18.5664L121.868 14.9844C124.949 12.2754 124.009 9.36392 121.114 8.82442H116.023C115.266 8.91092 114.868 9.16142 114.83 9.57942V27.5514C114.674 29.0964 113.883 29.7579 112.567 29.6944H90.7388L90.6648 29.7084C90.5103 29.7084 90.3618 29.7039 90.2193 29.6944H89.8808L89.9373 29.6719C89.0163 29.5754 88.3448 29.2864 88.0103 28.7369L81.4738 19.1574C81.1463 18.7174 80.6928 18.5004 80.1148 18.5124H78.3658C78.0913 18.5299 77.8153 18.6834 77.5398 18.9394V28.5524C77.5398 29.2479 76.9793 29.8189 76.2923 29.8189H67.6063C66.9193 29.8189 66.3568 29.2474 66.3568 28.5524V4.54243C66.3568 3.84443 66.9193 3.27543 67.6063 3.27543H76.2923C76.9798 3.27543 77.5398 3.84443 77.5398 4.54243V11.9824C77.7813 12.3274 78.0273 12.5834 78.3658 12.5559H79.8568C80.1888 12.5744 80.5188 12.4699 80.7468 12.0639L87.6868 3.75443C88.1503 3.46043 88.7173 3.34293 89.3698 3.36843H100.049C100.67 3.33693 100.95 3.74593 100.892 4.59693L93.1248 13.9149C92.4023 14.6719 92.3593 15.4259 92.9958 16.1804L100.077 25.6849L100.125 25.6674H101.947C102.957 25.7579 103.407 25.3874 103.393 24.6329L103.33 5.05493C103.507 3.87793 104.175 3.29043 105.341 3.29493L131.611 3.23193C137.635 5.36643 138.719 10.3124 135.496 14.3264L131.548 18.5659C131.137 19.1734 131.053 19.7789 131.297 20.3864L134.642 25.2214L138.224 25.3509L147.06 4.89643C147.607 4.00993 148.538 3.44143 149.844 3.19793H157.933C159.105 3.15743 160.208 3.74543 161.262 4.76193L171.426 24.9629L171.458 24.9444H174.175L184.301 10.2649C184.301 9.62442 184.056 9.12492 183.47 8.77092H172.479C171.806 8.77092 171.252 8.07742 171.252 7.22792V4.74093C171.252 3.89193 171.806 3.19793 172.479 3.19793H198.503C199.177 3.19793 199.727 3.89193 199.727 4.74093V7.22792C199.727 7.71542 199.545 8.15492 199.262 8.43692L189.466 22.7694C189.263 23.4954 189.421 23.9484 189.943 24.1294H198.905C199.508 24.1294 200 24.8234 200 25.6724V28.1599C200 29.0084 199.508 29.7024 198.905 29.7024H175.677C175.641 29.7018 175.606 29.6993 175.571 29.6949H163.001L163.004 29.6924C162.1 29.6314 161.396 29.0599 160.855 28.0709L155.961 17.2654C154.976 16.1859 154.048 16.1859 153.176 17.2654L148.555 28.1384C147.98 29.0809 147.116 29.6539 145.836 29.6949H126.898C126.624 29.7254 126.348 29.7254 126.075 29.6949L125.72 29.6944Z" fill="#2E3239"/>
</g>
<defs>
<clipPath id="clip0_4024_1761">
<rect width="200" height="33.76" fill="white"/>
</clipPath>
</defs>
</svg>
