<svg width="200" height="53" viewBox="0 0 200 53" fill="none" xmlns="http://www.w3.org/2000/svg">
<path d="M91.9837 47.741C72.4003 47.2924 54.8307 45.8842 36.3827 43.2829C32.8053 42.7784 27.5626 41.9749 26.8905 41.8335L23.3739 31.2313L2.17188 29.9726V22.7406L23.3731 21.5098L26.8831 10.9421C26.9521 10.8731 31.038 10.164 34.7099 9.58393C64.7033 4.84809 94.3697 3.37245 124.456 5.11758C136.698 5.84005 148.903 7.09752 161.036 8.88637C166.798 9.73922 173.303 10.8418 173.43 10.9864L176.841 21.8212L197.825 22.7406V29.9726L176.841 31.1146L173.427 41.7456C173.301 41.8869 170.968 42.269 164.868 43.1473C148.503 45.5021 132.989 46.8816 115.398 47.5463C111.594 47.6901 95.5841 47.8224 91.987 47.7402L91.9837 47.741ZM113.583 43.559C128.301 43.1317 142.561 42.0061 157.672 40.0794C163.299 39.3613 169.564 38.4361 169.69 38.3047L171.906 31.3833L133.721 33.4612L133.649 26.5924L128.13 33.7652L100.344 35.277L100.204 28.6202L94.4954 35.0855L83.1003 34.5104L82.8555 23.3692L73.9721 23.9936L73.5999 34.0914L27.9734 31.4507L30.2394 38.4501C30.3396 38.5602 40.2402 39.9405 45.4403 40.5691C68.1747 43.3166 90.2764 44.3107 113.583 43.6354L113.583 43.559ZM119.227 31.1023V28.1757H125.49L132.953 18.271L134.899 13.2328L149.92 13.9607L150.024 28.8724L171.906 27.7114V25.6796L155.459 24.9483V20.8846L171.906 21.6051L169.741 14.2614C169.553 14.0741 158.998 12.4851 152.518 11.6684C140.392 10.1402 130.038 9.27172 116.65 8.65796C111.464 8.42051 94.304 8.33178 88.5009 8.51253C73.0724 8.99236 59.7686 10.0687 45.0927 12.0242C38.3817 12.9189 30.3199 14.1752 30.1712 14.3494L27.9742 22.0809L57.6349 20.7465V18.2767L53.3838 18.3515L53.3016 20.3464L46.068 20.6627V14.7043L71.5696 13.5902V18.4838L69.836 20.2338C78.0251 19.7721 94.4223 19.1403 94.4223 19.1403V25.5054L100.79 18.2923L126.449 19.745L123.477 23.5885L113.444 23.5327L113.37 31.2839L119.227 31.1023ZM57.634 24.6197L27.9734 25.9548V27.7254L57.634 29.4295V24.6197Z" fill="#383838"/>
</svg>
