<svg xmlns="http://www.w3.org/2000/svg" version="1.1" xmlns:xlink="http://www.w3.org/1999/xlink" xmlns:svgjs="http://svgjs.dev/svgjs" width="270" height="270"><svg width="270" height="270" viewBox="0 0 270 270" fill="none" xmlns="http://www.w3.org/2000/svg">
<rect width="270" height="270" rx="50" fill="#FFC531"></rect>
<mask id="SvgjsMask1001" style="mask-type:alpha" maskUnits="userSpaceOnUse" x="72" y="88" width="93" height="94">
<circle cx="118.461" cy="135.024" r="46.2426" fill="#D9D9D9"></circle>
</mask>
<g mask="url(#mask0_4005_4258)">
<circle cx="118.461" cy="135.024" r="46.2426" fill="#FFC531"></circle>
</g>
<path d="M108.49 172.286C102.945 172.286 98.4492 156.44 98.4492 136.892C98.4492 117.345 102.945 101.499 108.49 101.499C114.036 101.499 118.531 117.345 118.531 136.892C118.531 156.44 114.036 172.286 108.49 172.286Z" fill="#2E3239"></path>
<path fill-rule="evenodd" clip-rule="evenodd" d="M91.0713 172.286C79.6375 163.867 72.2188 150.312 72.2188 135.024C72.2188 121.828 77.7459 109.924 86.6115 101.499H108.484V172.286H91.0713Z" fill="#2E3239"></path>
<path d="M108.491 106.333H166.273V167.448H108.491C103.704 167.448 99.823 153.767 99.823 136.889C99.823 120.012 103.704 106.33 108.491 106.33V106.333Z" fill="black"></path>
<path d="M157.755 101.013V106.333H154.664C153.886 106.333 153.134 106.696 152.417 107.372H122.818V101.013H157.758H157.755Z" fill="#2E3239"></path>
<path d="M121.359 99.0371H159.211V101.013H121.359V99.0371Z" fill="black"></path>
<path d="M166.791 105.613H171.62V110.647C174.054 116.225 175.664 125.894 175.664 136.892C175.664 147.89 174.054 157.56 171.62 163.138V168.171H166.791C161.889 168.171 157.917 154.168 157.917 136.892C157.917 119.617 161.892 105.613 166.791 105.613Z" fill="#2E3239"></path>
<path d="M171.619 168.171C166.718 168.171 162.746 154.167 162.746 136.892C162.746 119.617 166.718 105.613 171.619 105.613C176.519 105.613 180.492 119.617 180.492 136.892C180.492 154.167 176.519 168.171 171.619 168.171Z" fill="black"></path>
<path d="M175.073 155.631C172.136 155.631 169.756 147.241 169.756 136.892C169.756 126.543 172.136 118.153 175.073 118.153C178.01 118.153 180.391 126.543 180.391 136.892C180.391 147.241 178.01 155.631 175.073 155.631Z" fill="#2E3239"></path>
<path d="M174.957 128.68H186.148V145.101H174.957C173.67 145.101 172.628 141.425 172.628 136.889C172.628 132.353 173.67 128.677 174.957 128.677V128.68Z" fill="black"></path>
<path d="M185.4 123.105H210.539V150.676H185.4C183.24 150.676 181.49 144.504 181.49 136.889C181.49 129.274 183.24 123.102 185.4 123.102V123.105Z" fill="black"></path>
<path d="M187.788 123.105H190.422C188.262 123.105 186.512 129.278 186.512 136.892C186.512 144.507 188.262 150.68 190.422 150.68H187.788C185.628 150.68 183.878 144.507 183.878 136.892C183.878 129.278 185.628 123.105 187.788 123.105Z" fill="#FFC531"></path>
<path d="M203.991 123.105H206.625C204.465 123.105 202.715 129.278 202.715 136.892C202.715 144.507 204.465 150.68 206.625 150.68H203.991C201.831 150.68 200.081 144.507 200.081 136.892C200.081 129.278 201.831 123.105 203.991 123.105Z" fill="#FFC531"></path>
<path d="M210.54 150.68C208.379 150.68 206.628 144.507 206.628 136.892C206.628 129.278 208.379 123.105 210.54 123.105C212.701 123.105 214.453 129.278 214.453 136.892C214.453 144.507 212.701 150.68 210.54 150.68Z" fill="#2E3239"></path>
<path d="M211.731 128.68H222.922V145.101H211.731C210.443 145.101 209.401 141.425 209.401 136.889C209.401 132.353 210.443 128.677 211.731 128.677V128.68Z" fill="black"></path>
<path d="M222.92 145.104C221.634 145.104 220.591 141.427 220.591 136.892C220.591 132.357 221.634 128.68 222.92 128.68C224.207 128.68 225.25 132.357 225.25 136.892C225.25 141.427 224.207 145.104 222.92 145.104Z" fill="#2E3239"></path>
<path d="M111.459 136.411V141.085H108.109V128.778H111.459V133.453H125.799V128.778H129.149V141.085H125.799V136.411H111.459Z" fill="#FFC531"></path>
<path d="M134.539 138.107V141.085H131.189V128.778H147.49C150.105 128.818 152.209 130.889 152.209 133.433C152.209 135.504 150.84 137.239 148.92 137.87L152.209 141.085H147.531L144.487 138.107C142.71 138.107 134.539 138.107 134.539 138.107ZM134.539 131.717V135.149C136.235 135.149 145.733 135.149 147.204 135.149C148.184 135.149 148.981 134.379 148.981 133.433C148.981 132.506 148.205 131.717 147.184 131.717C147.143 131.717 134.58 131.717 134.539 131.717Z" fill="white"></path>
<path fill-rule="evenodd" clip-rule="evenodd" d="M152.091 81.2416C150.639 80.343 149.152 79.4944 147.619 78.7081C147.867 77.044 148.786 72.9706 149.804 68.6986C147.842 67.7796 145.831 66.96 143.77 66.2149C141.485 69.9405 139.25 73.4922 138.257 74.8583C136.221 74.1877 134.135 73.6164 131.999 73.1693C131.8 71.5052 131.651 67.3077 131.527 62.9363C129.665 62.6134 127.802 62.3402 125.89 62.1664C125.753 62.154 125.611 62.1477 125.468 62.1415C125.325 62.1353 125.182 62.1291 125.046 62.1167C123.804 66.2645 122.587 70.2385 121.966 71.8281C120.874 71.7784 119.806 71.7536 118.713 71.7536C117.62 71.7536 116.553 71.7784 115.46 71.8281C114.839 70.2385 113.622 66.2645 112.381 62.1167C112.108 62.1167 111.81 62.1415 111.536 62.1664C109.649 62.3402 107.762 62.6134 105.899 62.9363C105.775 67.3077 105.626 71.4804 105.427 73.1693C103.292 73.6164 101.206 74.1877 99.1694 74.8583C98.1761 73.517 95.9411 69.9653 93.6565 66.2149C91.5953 66.96 89.5839 67.8045 87.622 68.6986C88.6402 72.9458 89.559 77.044 89.8074 78.7081C87.8704 79.7015 86.0079 80.7944 84.1951 81.9618C82.8789 80.9186 79.8244 78.0623 76.621 75.057C74.833 76.2988 73.1195 77.64 71.4557 79.0309C73.5416 82.8807 75.5035 86.6063 76.174 88.1214C74.5598 89.562 73.045 91.1019 71.6047 92.7163C70.065 92.0457 66.3649 90.0836 62.5157 87.9972C61.1251 89.6613 59.7841 91.3999 58.5424 93.1634C61.5472 96.3426 64.403 99.4224 65.446 100.739C64.2789 102.552 63.1862 104.415 62.1929 106.352C60.5291 106.104 56.4564 105.185 52.1851 104.166C51.2663 106.129 50.4468 108.14 49.7018 110.202C53.4268 112.487 56.9779 114.722 58.3189 115.716C57.6484 117.752 57.0773 119.839 56.6303 121.975C54.9664 122.173 50.7945 122.322 46.399 122.447C46.0762 124.285 45.803 126.172 45.6292 128.06C45.6168 128.209 45.6044 128.352 45.5919 128.495C45.5795 128.637 45.5671 128.78 45.5547 128.929C49.7018 130.171 53.6751 131.388 55.2644 132.009C55.2148 133.077 55.1899 134.17 55.1899 135.238C55.1899 136.306 55.2148 137.424 55.2644 138.516C53.6751 139.137 49.7267 140.354 45.5547 141.596C45.5547 141.869 45.5795 142.143 45.6044 142.416C45.7782 144.328 46.0514 146.216 46.3742 148.079C50.7448 148.203 54.9168 148.352 56.6054 148.551C57.0524 150.687 57.6236 152.773 58.2941 154.81C56.9531 155.803 53.402 158.039 49.677 160.324C50.422 162.385 51.2415 164.397 52.1603 166.359C56.4068 165.341 60.5042 164.422 62.1681 164.173C63.1614 166.111 64.254 167.974 65.4212 169.787C64.3782 171.103 61.5224 174.183 58.5176 177.362C59.7592 179.15 61.1002 180.864 62.4909 182.528C66.34 180.442 70.065 178.48 71.5798 177.809C73.0201 179.424 74.5598 180.939 76.1491 182.379C75.4786 183.919 73.5416 187.62 71.4308 191.495C73.0946 192.885 74.833 194.202 76.5961 195.468C79.7748 192.463 82.8541 189.607 84.1702 188.564C85.983 189.731 87.8455 190.824 89.7825 191.817C89.5342 193.482 88.6154 197.555 87.5972 201.827C89.559 202.746 91.5705 203.565 93.6317 204.311C95.9163 200.585 98.1513 197.033 99.1446 195.692C101.181 196.363 103.267 196.934 105.403 197.381C105.601 199.045 105.75 203.218 105.874 207.614C107.712 207.937 109.575 208.21 111.487 208.384C111.636 208.396 111.779 208.409 111.922 208.421L111.923 208.421L112.077 208.435C112.169 208.443 112.261 208.451 112.356 208.458C113.598 204.311 114.814 200.337 115.435 198.747C116.503 198.797 117.596 198.822 118.663 198.822C119.731 198.822 120.849 198.797 121.941 198.747C122.562 200.337 123.779 204.286 125.021 208.458C125.294 208.458 125.567 208.434 125.84 208.409C127.752 208.235 129.64 207.962 131.502 207.614C131.626 203.243 131.775 199.07 131.974 197.381C134.11 196.934 136.196 196.363 138.232 195.692C139.225 197.033 141.46 200.585 143.745 204.311C145.806 203.565 147.818 202.721 149.779 201.802C148.761 197.53 147.818 193.457 147.594 191.793C149.14 190.999 150.639 190.143 152.091 189.236V178.96C142.839 186.039 131.273 190.244 118.725 190.244C88.3732 190.244 63.7683 165.639 63.7683 135.288C63.7683 104.936 88.3732 80.3309 118.725 80.3309C131.273 80.3309 142.839 84.5366 152.091 91.6153V81.2416Z" fill="#2E3239"></path>
</svg><style>@media (prefers-color-scheme: light) { :root { filter: none; } }
@media (prefers-color-scheme: dark) { :root { filter: none; } }
</style></svg>