<svg width="1920" height="2361" viewBox="0 0 1920 2361" fill="none" xmlns="http://www.w3.org/2000/svg">
<g filter="url(#filter0_f_4024_3021)">
<path d="M2394 -77.9735C2394 204.78 1961.94 647 1678.96 647C1395.98 647 1114 397.724 1114 114.971C1114 -167.783 1343.4 -397 1626.38 -397C1909.36 -397 2394 -360.727 2394 -77.9735Z" fill="url(#paint0_linear_4024_3021)" fill-opacity="0.2"/>
</g>
<g filter="url(#filter1_f_4024_3021)">
<path d="M1768.7 -116.232C1768.7 132.665 1388.97 521.933 1140.26 521.933C891.553 521.933 643.727 302.506 643.727 53.609C643.727 -195.288 845.344 -397.059 1094.05 -397.059C1342.76 -397.059 1768.7 -365.129 1768.7 -116.232Z" fill="url(#paint1_linear_4024_3021)" fill-opacity="0.1"/>
</g>
<g filter="url(#filter2_f_4024_3021)">
<path d="M-320 -66.1912C-320 264.23 144.127 781 448.11 781C752.094 781 1055 489.701 1055 159.28C1055 -171.141 808.573 -439 504.589 -439C200.606 -439 -320 -396.612 -320 -66.1912Z" fill="url(#paint2_linear_4024_3021)" fill-opacity="0.2"/>
</g>
<g filter="url(#filter3_f_4024_3021)">
<path d="M-320 1302.03C-320 1584.78 112.06 2027 395.041 2027C678.022 2027 960 1777.72 960 1494.97C960 1212.22 730.599 983 447.618 983C164.637 983 -320 1019.27 -320 1302.03Z" fill="url(#paint3_linear_4024_3021)" fill-opacity="0.2"/>
</g>
<g filter="url(#filter4_f_4024_3021)">
<path d="M305.301 1263.77C305.301 1512.67 685.032 1901.93 933.739 1901.93C1182.45 1901.93 1430.27 1682.51 1430.27 1433.61C1430.27 1184.71 1228.66 982.942 979.948 982.942C731.24 982.942 305.301 1014.87 305.301 1263.77Z" fill="url(#paint4_linear_4024_3021)" fill-opacity="0.1"/>
</g>
<g filter="url(#filter5_f_4024_3021)">
<path d="M2394 1313.81C2394 1644.23 1929.87 2161 1625.89 2161C1321.91 2161 1019 1869.7 1019 1539.28C1019 1208.86 1265.43 941 1569.41 941C1873.39 941 2394 983.388 2394 1313.81Z" fill="url(#paint5_linear_4024_3021)" fill-opacity="0.2"/>
</g>
<defs>
<filter id="filter0_f_4024_3021" x="964" y="-547" width="1580" height="1344" filterUnits="userSpaceOnUse" color-interpolation-filters="sRGB">
<feFlood flood-opacity="0" result="BackgroundImageFix"/>
<feBlend mode="normal" in="SourceGraphic" in2="BackgroundImageFix" result="shape"/>
<feGaussianBlur stdDeviation="75" result="effect1_foregroundBlur_4024_3021"/>
</filter>
<filter id="filter1_f_4024_3021" x="443.727" y="-597.059" width="1524.98" height="1318.99" filterUnits="userSpaceOnUse" color-interpolation-filters="sRGB">
<feFlood flood-opacity="0" result="BackgroundImageFix"/>
<feBlend mode="normal" in="SourceGraphic" in2="BackgroundImageFix" result="shape"/>
<feGaussianBlur stdDeviation="100" result="effect1_foregroundBlur_4024_3021"/>
</filter>
<filter id="filter2_f_4024_3021" x="-520" y="-639" width="1775" height="1620" filterUnits="userSpaceOnUse" color-interpolation-filters="sRGB">
<feFlood flood-opacity="0" result="BackgroundImageFix"/>
<feBlend mode="normal" in="SourceGraphic" in2="BackgroundImageFix" result="shape"/>
<feGaussianBlur stdDeviation="100" result="effect1_foregroundBlur_4024_3021"/>
</filter>
<filter id="filter3_f_4024_3021" x="-470" y="833" width="1580" height="1344" filterUnits="userSpaceOnUse" color-interpolation-filters="sRGB">
<feFlood flood-opacity="0" result="BackgroundImageFix"/>
<feBlend mode="normal" in="SourceGraphic" in2="BackgroundImageFix" result="shape"/>
<feGaussianBlur stdDeviation="75" result="effect1_foregroundBlur_4024_3021"/>
</filter>
<filter id="filter4_f_4024_3021" x="105.297" y="782.942" width="1524.98" height="1318.99" filterUnits="userSpaceOnUse" color-interpolation-filters="sRGB">
<feFlood flood-opacity="0" result="BackgroundImageFix"/>
<feBlend mode="normal" in="SourceGraphic" in2="BackgroundImageFix" result="shape"/>
<feGaussianBlur stdDeviation="100" result="effect1_foregroundBlur_4024_3021"/>
</filter>
<filter id="filter5_f_4024_3021" x="819" y="741" width="1775" height="1620" filterUnits="userSpaceOnUse" color-interpolation-filters="sRGB">
<feFlood flood-opacity="0" result="BackgroundImageFix"/>
<feBlend mode="normal" in="SourceGraphic" in2="BackgroundImageFix" result="shape"/>
<feGaussianBlur stdDeviation="100" result="effect1_foregroundBlur_4024_3021"/>
</filter>
<linearGradient id="paint0_linear_4024_3021" x1="1754" y1="-397" x2="2415.11" y2="1745.92" gradientUnits="userSpaceOnUse">
<stop stop-color="#F5F7F9"/>
<stop offset="1" stop-color="#5239AC"/>
</linearGradient>
<linearGradient id="paint1_linear_4024_3021" x1="1206.21" y1="-397.059" x2="1653.33" y2="653.694" gradientUnits="userSpaceOnUse">
<stop stop-color="white"/>
<stop offset="1" stop-color="#8C5CF2"/>
</linearGradient>
<linearGradient id="paint2_linear_4024_3021" x1="367.5" y1="-439" x2="-259.916" y2="918.516" gradientUnits="userSpaceOnUse">
<stop stop-color="#F6F6F6"/>
<stop offset="1" stop-color="#5239AC"/>
</linearGradient>
<linearGradient id="paint3_linear_4024_3021" x1="320" y1="983" x2="-341.105" y2="3125.92" gradientUnits="userSpaceOnUse">
<stop stop-color="#F5F7F9"/>
<stop offset="1" stop-color="#5239AC"/>
</linearGradient>
<linearGradient id="paint4_linear_4024_3021" x1="867.787" y1="982.942" x2="420.667" y2="2033.69" gradientUnits="userSpaceOnUse">
<stop stop-color="white"/>
<stop offset="1" stop-color="#8C5CF2"/>
</linearGradient>
<linearGradient id="paint5_linear_4024_3021" x1="1706.5" y1="941" x2="2333.92" y2="2298.52" gradientUnits="userSpaceOnUse">
<stop stop-color="#F6F6F6"/>
<stop offset="1" stop-color="#5239AC"/>
</linearGradient>
</defs>
</svg>
