<svg width="239" height="69" viewBox="0 0 239 69" fill="none" xmlns="http://www.w3.org/2000/svg">
<mask id="mask0_4024_1705" style="mask-type:alpha" maskUnits="userSpaceOnUse" x="12" y="12" width="44" height="44">
<circle cx="33.8958" cy="33.8933" r="21.4973" fill="#D9D9D9"/>
</mask>
<g mask="url(#mask0_4024_1705)">
<circle cx="33.8958" cy="33.8933" r="21.4973" fill="#FFC531"/>
</g>
<path d="M29.2618 51.2156C26.6838 51.2156 24.5939 43.8489 24.5939 34.7617C24.5939 25.6744 26.6838 18.3077 29.2618 18.3077C31.8398 18.3077 33.9297 25.6744 33.9297 34.7617C33.9297 43.8489 31.8398 51.2156 29.2618 51.2156Z" fill="#323740"/>
<path fill-rule="evenodd" clip-rule="evenodd" d="M19.0894 18.3077H29.2579V51.2156H21.1626C15.8473 47.3019 12.3984 41.0003 12.3984 33.8933C12.3984 27.7588 14.9679 22.2244 19.0894 18.3077Z" fill="#323740"/>
<path d="M29.2554 20.5552H56.1172V48.9666H29.2554C27.0296 48.9666 25.2256 42.6062 25.2256 34.7602C25.2256 26.9142 27.0296 20.5538 29.2554 20.5538V20.5552Z" fill="#666D79"/>
<path d="M52.1627 18.0819V20.5553H50.726C50.3641 20.5553 50.0145 20.724 49.6811 21.0383H35.921V18.0819H52.1641H52.1627Z" fill="#323740"/>
<path d="M35.247 17.1636H52.8438V18.0819H35.247V17.1636Z" fill="#666D79"/>
<path d="M56.3593 20.2206H58.6042V22.5607C59.7361 25.1538 60.4844 29.6489 60.4844 34.7617C60.4844 39.8745 59.7361 44.3696 58.6042 46.9627V49.3027H56.3593C54.0805 49.3027 52.2343 42.7927 52.2343 34.7617C52.2343 26.7306 54.0818 20.2206 56.3593 20.2206Z" fill="#323740"/>
<path d="M58.6093 49.3027C56.3311 49.3027 54.4843 42.7925 54.4843 34.7617C54.4843 26.7309 56.3311 20.2206 58.6093 20.2206C60.8875 20.2206 62.7344 26.7309 62.7344 34.7617C62.7344 42.7925 60.8875 49.3027 58.6093 49.3027Z" fill="#666D79"/>
<path d="M60.2155 43.473C58.8502 43.473 57.7434 39.5728 57.7434 34.7617C57.7434 29.9506 58.8502 26.0504 60.2155 26.0504C61.5807 26.0504 62.6875 29.9506 62.6875 34.7617C62.6875 39.5728 61.5807 43.473 60.2155 43.473Z" fill="#323740"/>
<path d="M60.1568 30.944H65.3594V38.5778H60.1568C59.5582 38.5778 59.0739 36.869 59.0739 34.7603C59.0739 32.6515 59.5582 30.9427 60.1568 30.9427V30.944Z" fill="#666D79"/>
<path d="M65.0164 28.3523H76.7031V41.1695H65.0164C64.0124 41.1695 63.1988 38.3002 63.1988 34.7602C63.1988 31.2202 64.0124 28.3509 65.0164 28.3509V28.3523Z" fill="#666D79"/>
<path d="M66.1271 28.3524H67.3516C66.3475 28.3524 65.5339 31.2217 65.5339 34.7617C65.5339 38.3018 66.3475 41.1711 67.3516 41.1711H66.1271C65.1231 41.1711 64.3095 38.3018 64.3095 34.7617C64.3095 31.2217 65.1231 28.3524 66.1271 28.3524Z" fill="#323740"/>
<path d="M73.6584 28.3524H74.8828C73.8788 28.3524 73.0652 31.2217 73.0652 34.7617C73.0652 38.3018 73.8788 41.1711 74.8828 41.1711H73.6584C72.6543 41.1711 71.8407 38.3018 71.8407 34.7617C71.8407 31.2217 72.6543 28.3524 73.6584 28.3524Z" fill="#323740"/>
<path d="M76.7044 41.1711C75.6998 41.1711 74.8855 38.3015 74.8855 34.7617C74.8855 31.222 75.6998 28.3524 76.7044 28.3524C77.709 28.3524 78.5234 31.222 78.5234 34.7617C78.5234 38.3015 77.709 41.1711 76.7044 41.1711Z" fill="#323740"/>
<path d="M77.2584 30.944H82.4609V38.5778H77.2584C76.6598 38.5778 76.1754 36.869 76.1754 34.7603C76.1754 32.6515 76.6598 30.9427 77.2584 30.9427V30.944Z" fill="#666D79"/>
<path d="M82.4561 38.5791C81.858 38.5791 81.3731 36.8699 81.3731 34.7615C81.3731 32.6532 81.858 30.944 82.4561 30.944C83.0542 30.944 83.5391 32.6532 83.5391 34.7615C83.5391 36.8699 83.0542 38.5791 82.4561 38.5791Z" fill="#323740"/>
<path d="M30.6433 34.5379V36.7109H29.0859V30.9897H30.6433V33.1626H37.3095V30.9897H38.8669V36.7109H37.3095V34.5379H30.6433Z" fill="#FFC531"/>
<path d="M41.3727 35.3264V36.7109H39.8154V30.9897H47.3932C48.6087 31.008 49.5868 31.9707 49.5868 33.1535C49.5868 34.1162 48.9506 34.923 48.058 35.2164L49.5868 36.7109H47.4122L45.9973 35.3264C45.1712 35.3264 41.3727 35.3264 41.3727 35.3264ZM41.3727 32.3558V33.9511C42.1609 33.9511 46.5766 33.9511 47.2603 33.9511C47.7161 33.9511 48.0864 33.5936 48.0864 33.1535C48.0864 32.7225 47.7256 32.3558 47.2508 32.3558C47.2318 32.3558 41.3917 32.3558 41.3727 32.3558Z" fill="#2E3239"/>
<path fill-rule="evenodd" clip-rule="evenodd" d="M49.5255 8.89015C48.8508 8.47267 48.1601 8.07839 47.4477 7.71301C47.5632 6.9394 47.9903 5.04578 48.4636 3.0598C47.5516 2.63258 46.6165 2.25155 45.6583 1.90516C44.5963 3.63712 43.5573 5.28826 43.0955 5.92332C42.1488 5.61156 41.1791 5.34599 40.1863 5.13816C40.0939 4.36455 40.0246 2.4132 39.9669 0.381035C39.1011 0.230927 38.2353 0.10392 37.3463 0.0230942C37.2828 0.0173187 37.2164 0.0144272 37.15 0.0115356C37.0837 0.00865173 37.0173 0.00576782 36.9538 0C36.3766 1.92825 35.8109 3.77568 35.5223 4.51465C35.0144 4.49155 34.5179 4.48001 34.01 4.48001C33.502 4.48001 33.0056 4.49155 32.4977 4.51465C32.209 3.77568 31.6434 1.92825 31.0661 0C30.9392 0 30.8006 0.0115433 30.6736 0.0230942C29.7963 0.10392 28.9189 0.230927 28.053 0.381035C27.9953 2.4132 27.9261 4.353 27.8337 5.13816C26.8409 5.34599 25.8711 5.61156 24.9245 5.92332C24.4627 5.2998 23.4237 3.64867 22.3616 1.90516C21.4034 2.25155 20.4683 2.64413 19.5563 3.0598C20.0296 5.03424 20.4568 6.9394 20.5722 7.71301C19.6718 8.17487 18.8059 8.68291 17.9632 9.22559C17.3513 8.74064 15.9314 7.4128 14.4421 6.01569C13.6109 6.593 12.8144 7.21651 12.0409 7.86311C13.0106 9.65281 13.9226 11.3848 14.2343 12.0891C13.4839 12.7588 12.7797 13.4747 12.1101 14.2252C11.3944 13.9134 9.67426 13.0013 7.88487 12.0314C7.23838 12.805 6.61498 13.6132 6.03775 14.433C7.43463 15.911 8.76225 17.3427 9.24711 17.9547C8.70452 18.7976 8.19657 19.6636 7.73479 20.5642C6.96131 20.4487 5.06802 20.0215 3.08237 19.5481C2.65523 20.4603 2.27426 21.3955 1.92792 22.3539C3.65959 23.4161 5.31045 24.4553 5.93385 24.9172C5.62215 25.864 5.35663 26.8339 5.14883 27.8269C4.37535 27.9192 2.43588 27.9885 0.392512 28.0463C0.242434 28.9007 0.115445 29.7782 0.0346334 30.6557C0.0288763 30.7248 0.0231193 30.7911 0.0173623 30.8573L0.0173167 30.8578C0.0115445 30.9242 0.00577223 30.9906 0 31.0599C1.92792 31.6372 3.77504 32.203 4.51388 32.4916C4.4908 32.9881 4.47925 33.4962 4.47925 33.9927C4.47925 34.4892 4.4908 35.0088 4.51388 35.5168C3.77504 35.8055 1.93947 36.3712 0 36.9485C0 37.0756 0.0115445 37.2026 0.0230889 37.3296C0.1039 38.2187 0.230889 39.0962 0.380967 39.9622C2.41279 40.0199 4.35226 40.0892 5.13729 40.1815C5.34509 41.1745 5.61061 42.1444 5.92231 43.0912C5.29891 43.5531 3.64805 44.5923 1.91638 45.6545C2.26271 46.6129 2.64368 47.5482 3.07083 48.4603C5.04493 47.9869 6.94977 47.5597 7.72324 47.4442C8.18502 48.3449 8.69298 49.2108 9.23557 50.0537C8.7507 50.6657 7.42309 52.0975 6.02621 53.5754C6.60343 54.4067 7.22683 55.2034 7.87332 55.9771C9.66271 55.0072 11.3944 54.095 12.0986 53.7832C12.7682 54.5337 13.4839 55.2381 14.2228 55.9078C13.9111 56.6236 13.0106 58.3441 12.0293 60.1453C12.8028 60.7919 13.6109 61.4039 14.4306 61.9927C15.9083 60.5956 17.3398 59.2678 17.9516 58.7828C18.7944 59.3255 19.6602 59.8336 20.5607 60.2954C20.4452 61.069 20.0181 62.9626 19.5448 64.9486C20.4568 65.3758 21.3919 65.7569 22.3501 66.1033C23.4122 64.3713 24.4512 62.7202 24.9129 62.0967C25.8596 62.4084 26.8293 62.674 27.8222 62.8818C27.9145 63.6554 27.9838 65.5952 28.0415 67.6389C28.8958 67.789 29.7616 67.9161 30.6505 67.9969C30.7198 68.0027 30.7862 68.0084 30.8526 68.0142C30.8817 68.0167 30.9108 68.0193 30.9402 68.0218C30.9778 68.025 31.0157 68.0283 31.0546 68.0315C31.6318 66.1033 32.1975 64.2558 32.4861 63.5169C32.9825 63.54 33.4905 63.5515 33.9869 63.5515C34.4833 63.5515 35.0028 63.54 35.5108 63.5169C35.7994 64.2558 36.3651 66.0917 36.9423 68.0315C37.0693 68.0315 37.1963 68.02 37.3232 68.0084C38.2122 67.9276 39.0895 67.8006 39.9554 67.6389C40.0131 65.6068 40.0824 63.667 40.1747 62.8818C41.1675 62.674 42.1373 62.4084 43.0839 62.0967C43.5457 62.7202 44.5847 64.3713 45.6468 66.1033C46.605 65.7569 47.5401 65.3643 48.4521 64.9371C47.9788 62.9511 47.5401 61.0575 47.4362 60.2839C48.1547 59.9153 48.8511 59.5174 49.5255 59.0959V54.3187C45.2249 57.6092 39.8483 59.5641 34.015 59.5641C19.9051 59.5641 8.46673 48.1257 8.46673 34.0158C8.46673 19.9058 19.9051 8.46747 34.015 8.46747C39.8483 8.46747 45.2249 10.4224 49.5255 13.7129V8.89015Z" fill="#FFC531"/>
<path d="M93.628 23.594V29.6961H89.4141V13.6297H93.628V19.7318H111.666V13.6297H115.879V29.6961H111.666V23.594H93.628Z" fill="white"/>
<path d="M129.905 29.7219V22.7958L117.417 13.6554H124.046L132.423 19.4229L140.799 13.6554H147.403L134.915 22.7958V29.7219H129.905Z" fill="white"/>
<path d="M176.606 21.6372C176.606 25.8855 173.215 29.5931 169.026 29.6961H148.933V13.6297C148.933 13.6297 168.924 13.6297 169.335 13.6297C173.42 13.6297 176.606 17.5176 176.606 21.6372ZM153.121 25.8083C155.973 25.8083 168.127 25.8083 168.307 25.8083C170.568 25.8083 172.392 23.9029 172.392 21.6372C172.392 19.4486 170.671 17.5948 168.512 17.4918C168.384 17.4661 155.357 17.4918 153.121 17.4918V25.8083Z" fill="white"/>
<path d="M182.355 25.8083V29.6961H178.141V13.6297H198.645C201.934 13.6812 204.58 16.3847 204.58 19.7061C204.58 22.4096 202.859 24.6754 200.444 25.4993L204.58 29.6961H198.696L194.868 25.8083C192.632 25.8083 182.355 25.8083 182.355 25.8083ZM182.355 17.4661V21.9461C184.487 21.9461 196.435 21.9461 198.285 21.9461C199.519 21.9461 200.521 20.942 200.521 19.7061C200.521 18.496 199.544 17.4661 198.26 17.4661C198.208 17.4661 182.406 17.4661 182.355 17.4661Z" fill="white"/>
<path d="M233.425 29.6961L230.701 26.7867H213.64L210.891 29.6961H205.341L219.807 13.5782H224.535L239.001 29.6961H233.425ZM216.903 23.3107C219.961 23.3107 224.124 23.3107 227.438 23.3107L222.171 17.7235L216.903 23.3107Z" fill="white"/>
<path d="M93.628 51.5558V55.4436H89.4141V39.3772H109.918C113.207 39.4287 115.854 42.1322 115.854 45.4536C115.854 48.1571 114.132 50.4229 111.717 51.2468L115.854 55.4436H109.97L106.141 51.5558C103.906 51.5558 93.628 51.5558 93.628 51.5558ZM93.628 43.2136V47.6936C95.7606 47.6936 107.709 47.6936 109.559 47.6936C110.792 47.6936 111.794 46.6895 111.794 45.4536C111.794 44.2435 110.818 43.2136 109.533 43.2136C109.482 43.2136 93.6794 43.2136 93.628 43.2136Z" fill="#FFC531"/>
<path d="M118.421 55.4436V39.3772H122.635V55.4436H118.421Z" fill="#FFC531"/>
<path d="M151.473 55.4436L148.75 52.5342H131.688L128.939 55.4436H123.389L137.855 39.3257H142.583L157.049 55.4436H151.473ZM134.952 49.0583C138.009 49.0583 142.172 49.0583 145.486 49.0583L140.219 43.471L134.952 49.0583Z" fill="#FFC531"/>
</svg>
