<svg width="276" height="80" viewBox="0 0 276 80" fill="none" xmlns="http://www.w3.org/2000/svg">
<mask id="mask0_4024_1241" style="mask-type:alpha" maskUnits="userSpaceOnUse" x="14" y="14" width="50" height="51">
<ellipse cx="39.1379" cy="39.7375" rx="24.8254" ry="24.8254" fill="#D9D9D9"/>
</mask>
<g mask="url(#mask0_4024_1241)">
<ellipse cx="39.1379" cy="39.7375" rx="24.8254" ry="24.8254" fill="#FFC531"/>
</g>
<path d="M33.7892 59.7416C30.8121 59.7416 28.3986 51.2345 28.3986 40.7404C28.3986 30.2464 30.8121 21.7393 33.7892 21.7393C36.7663 21.7393 39.1797 30.2464 39.1797 40.7404C39.1797 51.2345 36.7663 59.7416 33.7892 59.7416Z" fill="#2E3239"/>
<path fill-rule="evenodd" clip-rule="evenodd" d="M22.0393 21.7393H33.7819V59.7416H24.4335C18.2953 55.222 14.3125 47.9449 14.3125 39.7376C14.3125 32.6534 17.2798 26.2623 22.0393 21.7393Z" fill="#2E3239"/>
<path d="M33.7844 24.3346H64.8047V57.1444H33.7844C31.214 57.1444 29.1307 49.7994 29.1307 40.7387C29.1307 31.678 31.214 24.333 33.7844 24.333V24.3346Z" fill="black"/>
<path d="M60.2328 21.4785V24.3348H58.5737C58.1558 24.3348 57.752 24.5296 57.3671 24.8926H41.4767V21.4785H60.2344H60.2328Z" fill="#2E3239"/>
<path d="M40.6947 20.418H61.0156V21.4785H40.6947V20.418Z" fill="black"/>
<path d="M65.0801 23.9482H67.6725V26.6506C68.9796 29.6451 69.8438 34.8361 69.8438 40.7404C69.8438 46.6447 68.9796 51.8357 67.6725 54.8303V57.5326H65.0801C62.4485 57.5326 60.3165 50.0148 60.3165 40.7404C60.3165 31.4661 62.45 23.9482 65.0801 23.9482Z" fill="#2E3239"/>
<path d="M67.6817 57.5326C65.0508 57.5326 62.918 50.0145 62.918 40.7404C62.918 31.4664 65.0508 23.9482 67.6817 23.9482C70.3126 23.9482 72.4453 31.4664 72.4453 40.7404C72.4453 50.0145 70.3126 57.5326 67.6817 57.5326Z" fill="black"/>
<path d="M69.5281 50.8005C67.9515 50.8005 66.6733 46.2965 66.6733 40.7406C66.6733 35.1846 67.9515 30.6807 69.5281 30.6807C71.1047 30.6807 72.3828 35.1846 72.3828 40.7406C72.3828 46.2965 71.1047 50.8005 69.5281 50.8005Z" fill="#2E3239"/>
<path d="M69.4686 36.3317H75.4766V45.1472H69.4686C68.7773 45.1472 68.218 43.1739 68.218 40.7387C68.218 38.3034 68.7773 36.3301 69.4686 36.3301V36.3317Z" fill="black"/>
<path d="M75.0744 33.3385H88.5703V48.14H75.0744C73.9149 48.14 72.9753 44.8265 72.9753 40.7385C72.9753 36.6504 73.9149 33.3369 75.0744 33.3369V33.3385Z" fill="black"/>
<path d="M76.3594 33.3389H77.7734C76.6139 33.3389 75.6744 36.6524 75.6744 40.7404C75.6744 44.8285 76.6139 48.142 77.7734 48.142H76.3594C75.1999 48.142 74.2604 44.8285 74.2604 40.7404C74.2604 36.6524 75.1999 33.3389 76.3594 33.3389Z" fill="#FFC531"/>
<path d="M85.0547 33.3389H86.4688C85.3093 33.3389 84.3697 36.6524 84.3697 40.7404C84.3697 44.8285 85.3093 48.142 86.4688 48.142H85.0547C83.8952 48.142 82.9557 44.8285 82.9557 40.7404C82.9557 36.6524 83.8952 33.3389 85.0547 33.3389Z" fill="#FFC531"/>
<path d="M88.5713 48.142C87.4112 48.142 86.4707 44.8282 86.4707 40.7404C86.4707 36.6527 87.4112 33.3389 88.5713 33.3389C89.7314 33.3389 90.6719 36.6527 90.6719 40.7404C90.6719 44.8282 89.7314 48.142 88.5713 48.142Z" fill="#2E3239"/>
<path d="M89.2108 36.3317H95.2188V45.1472H89.2108C88.5195 45.1472 87.9602 43.1739 87.9602 40.7387C87.9602 38.3034 88.5195 36.3301 89.2108 36.3301V36.3317Z" fill="black"/>
<path d="M95.2259 45.1492C94.5353 45.1492 93.9753 43.1754 93.9753 40.7406C93.9753 38.3058 94.5353 36.332 95.2259 36.332C95.9166 36.332 96.4766 38.3058 96.4766 40.7406C96.4766 43.1754 95.9166 45.1492 95.2259 45.1492Z" fill="#2E3239"/>
<path d="M35.3844 40.4813V42.9907H33.5859V36.3838H35.3844V38.8931H43.0826V36.3838H44.8811V42.9907H43.0826V40.4813H35.3844Z" fill="#FFC531"/>
<path d="M47.7749 41.3919V42.9907H45.9764V36.3838H54.7274C56.1311 36.405 57.2606 37.5167 57.2606 38.8825C57.2606 39.9943 56.5259 40.926 55.495 41.2648L57.2606 42.9907H54.7493L53.1154 41.3919C52.1613 41.3919 47.7749 41.3919 47.7749 41.3919ZM47.7749 37.9614V39.8037C48.6851 39.8037 53.7843 39.8037 54.5739 39.8037C55.1003 39.8037 55.5279 39.3908 55.5279 38.8825C55.5279 38.3849 55.1112 37.9614 54.5629 37.9614C54.541 37.9614 47.7968 37.9614 47.7749 37.9614Z" fill="white"/>
<path fill-rule="evenodd" clip-rule="evenodd" d="M57.1927 10.8631C56.4135 10.381 55.6159 9.9257 54.7932 9.50375C54.9265 8.61038 55.4198 6.42361 55.9664 4.13017C54.9132 3.63682 53.8333 3.1968 52.7268 2.79678C51.5003 4.79687 50.3004 6.70363 49.7672 7.43699C48.674 7.07698 47.5541 6.7703 46.4076 6.53028C46.3009 5.63691 46.2209 3.38347 46.1543 1.0367C45.1544 0.863359 44.1545 0.716685 43.128 0.623348C43.0547 0.616681 42.978 0.613347 42.9013 0.610014C42.8247 0.60668 42.748 0.603347 42.6747 0.59668C42.0081 2.82345 41.3549 4.95688 41.0216 5.81025C40.435 5.78358 39.8617 5.77025 39.2751 5.77025C38.6885 5.77025 38.1153 5.78358 37.5287 5.81025C37.1954 4.95688 36.5421 2.82345 35.8755 0.59668C35.7289 0.59668 35.5689 0.610014 35.4223 0.623348C34.4091 0.716685 33.3959 0.863359 32.396 1.0367C32.3293 3.38347 32.2493 5.62358 32.1427 6.53028C30.9962 6.7703 29.8763 7.07698 28.7831 7.43699C28.2498 6.71696 27.05 4.81021 25.8235 2.79678C24.7169 3.1968 23.6371 3.65015 22.5839 4.13017C23.1305 6.41028 23.6237 8.61038 23.7571 9.50375C22.7172 10.0371 21.7173 10.6238 20.7441 11.2505C20.0375 10.6905 18.3977 9.15707 16.6779 7.54366C15.7181 8.21036 14.7982 8.93039 13.9049 9.67709C15.0248 11.7439 16.078 13.7439 16.438 14.5573C15.5714 15.3307 14.7582 16.1574 13.9849 17.0241C13.1584 16.6641 11.1719 15.6107 9.10554 14.4906C8.35896 15.384 7.63905 16.3174 6.97247 17.2641C8.5856 18.9709 10.1187 20.6243 10.6787 21.331C10.0521 22.3043 9.46549 23.3044 8.93222 24.3444C8.039 24.2111 5.85261 23.7177 3.55956 23.171C3.06629 24.2244 2.62634 25.3045 2.22639 26.4112C4.22614 27.6379 6.13257 28.838 6.85248 29.3713C6.49253 30.4647 6.1859 31.5848 5.94593 32.7315C5.05271 32.8382 2.81298 32.9182 0.453277 32.9848C0.279965 33.9715 0.133317 34.9849 0.039995 35.9983C0.0333292 36.0783 0.0266634 36.155 0.0199975 36.2316C0.0133317 36.3083 0.00666584 36.385 0 36.465C2.22639 37.1317 4.35946 37.785 5.21269 38.1184C5.18602 38.6918 5.17269 39.2785 5.17269 39.8518C5.17269 40.4252 5.18602 41.0252 5.21269 41.6119C4.35946 41.9452 2.23972 42.5986 0 43.2653C0 43.412 0.0133317 43.5586 0.0266634 43.7053C0.119985 44.732 0.266634 45.7454 0.439945 46.7455C2.78632 46.8121 5.02604 46.8921 5.9326 46.9988C6.17257 48.1455 6.4792 49.2656 6.83915 50.359C6.11924 50.8923 4.21281 52.0924 2.21306 53.3191C2.61301 54.4258 3.05295 55.5059 3.54623 56.5592C5.82594 56.0125 8.02567 55.5192 8.91889 55.3859C9.45216 56.4259 10.0388 57.4259 10.6653 58.3993C10.1054 59.106 8.57227 60.7594 6.95914 62.4662C7.62572 63.4262 8.34563 64.3463 9.09221 65.2396C11.1586 64.1196 13.1584 63.0662 13.9716 62.7062C14.7448 63.5729 15.5714 64.3863 16.4246 65.1596C16.0647 65.9863 15.0248 67.9731 13.8916 70.0532C14.7848 70.7999 15.7181 71.5066 16.6646 72.1866C18.3711 70.5732 20.0242 69.0398 20.7308 68.4798C21.704 69.1065 22.7039 69.6932 23.7437 70.2265C23.6104 71.1199 23.1171 73.3067 22.5705 75.6001C23.6237 76.0935 24.7036 76.5335 25.8101 76.9335C27.0366 74.9334 28.2365 73.0267 28.7698 72.3066C29.863 72.6666 30.9828 72.9733 32.1293 73.2133C32.236 74.1067 32.316 76.3468 32.3826 78.7069C33.3692 78.8803 34.3691 79.0269 35.3956 79.1203C35.4756 79.1269 35.5523 79.1336 35.6289 79.1403C35.7056 79.1469 35.7822 79.1536 35.8622 79.1603C36.5288 76.9335 37.1821 74.8001 37.5153 73.9467C38.0886 73.9734 38.6752 73.9867 39.2485 73.9867C39.8217 73.9867 40.4216 73.9734 41.0082 73.9467C41.3415 74.8001 41.9948 76.9202 42.6614 79.1603C42.808 79.1603 42.9547 79.1469 43.1013 79.1336C44.1279 79.0403 45.1411 78.8936 46.1409 78.7069C46.2076 76.3601 46.2876 74.12 46.3942 73.2133C47.5408 72.9733 48.6606 72.6666 49.7538 72.3066C50.2871 73.0267 51.4869 74.9334 52.7135 76.9335C53.82 76.5335 54.8999 76.0801 55.9531 75.5868C55.4065 73.2933 54.8999 71.1066 54.7799 70.2132C55.6096 69.7876 56.4139 69.3281 57.1927 68.8414V63.3246C52.2263 67.1245 46.0173 69.3821 39.281 69.3821C22.9866 69.3821 9.77748 56.1729 9.77748 39.8786C9.77748 23.5843 22.9866 10.3751 39.281 10.3751C46.0173 10.3751 52.2263 12.6327 57.1927 16.4325V10.8631Z" fill="#2E3239"/>
<path d="M108.124 27.8437V34.8905H103.258V16.3368H108.124V23.3837H128.954V16.3368H133.82V34.8905H128.954V27.8437H108.124Z" fill="black"/>
<path d="M150.017 34.9203V26.9219L135.596 16.3665H143.252L152.925 23.0269L162.598 16.3665H170.224L155.803 26.9219V34.9203H150.017Z" fill="black"/>
<path d="M203.948 25.5839C203.948 30.49 200.032 34.7716 195.195 34.8905H171.991V16.3368C171.991 16.3368 195.076 16.3368 195.551 16.3368C200.269 16.3368 203.948 20.8266 203.948 25.5839ZM176.828 30.4008C180.121 30.4008 194.156 30.4008 194.364 30.4008C196.975 30.4008 199.082 28.2005 199.082 25.5839C199.082 23.0566 197.094 20.9158 194.602 20.7968C194.453 20.7671 179.409 20.7968 176.828 20.7968V30.4008Z" fill="black"/>
<path d="M210.587 30.4008V34.8905H205.72V16.3368H229.399C233.197 16.3963 236.253 19.5183 236.253 23.3539C236.253 26.4759 234.265 29.0925 231.476 30.044L236.253 34.8905H229.458L225.037 30.4008C222.456 30.4008 210.587 30.4008 210.587 30.4008ZM210.587 20.7671V25.9407C213.049 25.9407 226.847 25.9407 228.984 25.9407C230.408 25.9407 231.565 24.7811 231.565 23.3539C231.565 21.9564 230.437 20.7671 228.954 20.7671C228.895 20.7671 210.646 20.7671 210.587 20.7671Z" fill="black"/>
<path d="M269.563 34.8905L266.418 31.5306H246.716L243.541 34.8905H237.131L253.837 16.2773H259.297L276.002 34.8905H269.563ZM250.484 27.5166C254.015 27.5166 258.822 27.5166 262.65 27.5166L256.567 21.0644L250.484 27.5166Z" fill="black"/>
<path d="M108.124 60.1343V64.6241H103.258V46.0703H126.936C130.734 46.1298 133.791 49.2518 133.791 53.0875C133.791 56.2095 131.803 58.826 129.013 59.7775L133.791 64.6241H126.996L122.575 60.1343C119.993 60.1343 108.124 60.1343 108.124 60.1343ZM108.124 50.5006V55.6743C110.587 55.6743 124.385 55.6743 126.521 55.6743C127.945 55.6743 129.102 54.5147 129.102 53.0875C129.102 51.69 127.975 50.5006 126.491 50.5006C126.432 50.5006 108.183 50.5006 108.124 50.5006Z" fill="#FFC531"/>
<path d="M136.755 64.6241V46.0703H141.621V64.6241H136.755Z" fill="#FFC531"/>
<path d="M174.925 64.6241L171.779 61.2642H152.077L148.902 64.6241H142.493L159.198 46.0109H164.658L181.363 64.6241H174.925ZM155.845 57.2501C159.376 57.2501 164.183 57.2501 168.011 57.2501L161.928 50.798L155.845 57.2501Z" fill="#FFC531"/>
</svg>
